<mxfile host="app.diagrams.net" agent="Mozilla/5.0 (X11; Ubuntu; Linux x86_64; rv:131.0) Gecko/20100101 Firefox/131.0" version="26.0.14">
  <diagram id="prtHgNgQTEPvFCAcTncT" name="Page-1">
    <mxGraphModel dx="739" dy="427" grid="1" gridSize="10" guides="1" tooltips="1" connect="1" arrows="1" fold="1" page="1" pageScale="1" pageWidth="827" pageHeight="1169" math="0" shadow="0">
      <root>
        <mxCell id="0" />
        <mxCell id="1" parent="0" />
        <mxCell id="SY9hcsrAoVsARsyOuTav-1" value="&lt;font style=&quot;font-size: 9px;&quot;&gt;Prompt: “What would you like? (espresso/latte/cappuccino):”&lt;/font&gt;" style="rounded=0;whiteSpace=wrap;html=1;" vertex="1" parent="1">
          <mxGeometry x="360" y="20" width="280" height="60" as="geometry" />
        </mxCell>
        <mxCell id="SY9hcsrAoVsARsyOuTav-72" style="edgeStyle=orthogonalEdgeStyle;rounded=0;orthogonalLoop=1;jettySize=auto;html=1;entryX=0.5;entryY=0;entryDx=0;entryDy=0;" edge="1" parent="1" source="SY9hcsrAoVsARsyOuTav-17" target="SY9hcsrAoVsARsyOuTav-23">
          <mxGeometry relative="1" as="geometry" />
        </mxCell>
        <mxCell id="SY9hcsrAoVsARsyOuTav-74" style="edgeStyle=orthogonalEdgeStyle;rounded=0;orthogonalLoop=1;jettySize=auto;html=1;" edge="1" parent="1" source="SY9hcsrAoVsARsyOuTav-17" target="SY9hcsrAoVsARsyOuTav-22">
          <mxGeometry relative="1" as="geometry">
            <Array as="points">
              <mxPoint x="500" y="250" />
              <mxPoint x="268" y="250" />
            </Array>
          </mxGeometry>
        </mxCell>
        <mxCell id="SY9hcsrAoVsARsyOuTav-75" style="edgeStyle=orthogonalEdgeStyle;rounded=0;orthogonalLoop=1;jettySize=auto;html=1;entryX=0.5;entryY=0;entryDx=0;entryDy=0;" edge="1" parent="1" source="SY9hcsrAoVsARsyOuTav-17" target="SY9hcsrAoVsARsyOuTav-25">
          <mxGeometry relative="1" as="geometry">
            <Array as="points">
              <mxPoint x="500" y="250" />
              <mxPoint x="732" y="250" />
            </Array>
          </mxGeometry>
        </mxCell>
        <mxCell id="SY9hcsrAoVsARsyOuTav-17" value="&lt;div&gt;input: &lt;span style=&quot;color: rgb(255, 0, 0);&quot;&gt;espresso/latte/cappucino/off&lt;/span&gt;&lt;/div&gt;&lt;div&gt;format: &lt;span style=&quot;color: rgb(255, 0, 0);&quot;&gt;.lower()&lt;/span&gt;&lt;/div&gt;&lt;div&gt;validate input, return &lt;span style=&quot;color: rgb(255, 0, 0);&quot;&gt;&quot;Try again&quot;&lt;/span&gt; if invalid&lt;br&gt;&lt;/div&gt;" style="rounded=1;whiteSpace=wrap;html=1;fillColor=#fff2cc;strokeColor=#d6b656;" vertex="1" parent="1">
          <mxGeometry x="365" y="110" width="270" height="60" as="geometry" />
        </mxCell>
        <mxCell id="SY9hcsrAoVsARsyOuTav-21" style="edgeStyle=none;rounded=0;orthogonalLoop=1;jettySize=auto;html=1;entryX=0.499;entryY=-0.044;entryDx=0;entryDy=0;entryPerimeter=0;" edge="1" parent="1" source="SY9hcsrAoVsARsyOuTav-1" target="SY9hcsrAoVsARsyOuTav-17">
          <mxGeometry relative="1" as="geometry" />
        </mxCell>
        <mxCell id="SY9hcsrAoVsARsyOuTav-22" value="espresso" style="rounded=0;whiteSpace=wrap;html=1;" vertex="1" parent="1">
          <mxGeometry x="208" y="330" width="120" height="60" as="geometry" />
        </mxCell>
        <mxCell id="SY9hcsrAoVsARsyOuTav-23" value="latte" style="rounded=0;whiteSpace=wrap;html=1;" vertex="1" parent="1">
          <mxGeometry x="362" y="330" width="120" height="60" as="geometry" />
        </mxCell>
        <mxCell id="SY9hcsrAoVsARsyOuTav-24" value="cappucino" style="rounded=0;whiteSpace=wrap;html=1;" vertex="1" parent="1">
          <mxGeometry x="518" y="330" width="120" height="60" as="geometry" />
        </mxCell>
        <mxCell id="SY9hcsrAoVsARsyOuTav-25" value="off" style="rounded=0;whiteSpace=wrap;html=1;" vertex="1" parent="1">
          <mxGeometry x="672" y="330" width="120" height="60" as="geometry" />
        </mxCell>
        <mxCell id="SY9hcsrAoVsARsyOuTav-73" style="edgeStyle=orthogonalEdgeStyle;rounded=0;orthogonalLoop=1;jettySize=auto;html=1;entryX=0.525;entryY=0.003;entryDx=0;entryDy=0;entryPerimeter=0;" edge="1" parent="1" source="SY9hcsrAoVsARsyOuTav-17" target="SY9hcsrAoVsARsyOuTav-24">
          <mxGeometry relative="1" as="geometry" />
        </mxCell>
        <mxCell id="SY9hcsrAoVsARsyOuTav-76" value="&lt;div&gt;&lt;b&gt;Print Report&lt;/b&gt;&lt;/div&gt;&lt;div&gt;&lt;span style=&quot;color: rgb(255, 0, 0);&quot;&gt;&quot;Water:&quot;&lt;/span&gt;&lt;/div&gt;&lt;div&gt;&lt;span style=&quot;color: rgb(255, 0, 0);&quot;&gt;&quot;Milk:&quot;&lt;/span&gt;&lt;/div&gt;&lt;div&gt;&lt;span style=&quot;color: rgb(255, 0, 0);&quot;&gt;&quot;Coffee&quot;&lt;/span&gt;&lt;/div&gt;&lt;div&gt;&lt;span style=&quot;color: rgb(255, 0, 0);&quot;&gt;&quot;Money:&quot;&lt;br&gt;&lt;/span&gt;&lt;/div&gt;" style="rounded=0;whiteSpace=wrap;html=1;" vertex="1" parent="1">
          <mxGeometry x="30" y="20" width="120" height="90" as="geometry" />
        </mxCell>
        <mxCell id="SY9hcsrAoVsARsyOuTav-77" value="&lt;div&gt;&lt;span style=&quot;background-color: light-dark(#ffffff, var(--ge-dark-color, #121212)); color: rgb(51, 51, 255);&quot;&gt;Resources&lt;/span&gt;&lt;/div&gt;&lt;div&gt;&lt;span style=&quot;background-color: light-dark(#ffffff, var(--ge-dark-color, #121212)); color: rgba(0, 0, 0, 0);&quot;&gt;&lt;span style=&quot;background-color: light-dark(#ffffff, var(--ge-dark-color, #121212));&quot;&gt;&lt;span style=&quot;background-color: light-dark(#ffffff, var(--ge-dark-color, #121212));&quot;&gt;&lt;span style=&quot;color: rgba(0, 0, 0, 0);&quot;&gt;Water&lt;br&gt;&lt;/span&gt;&lt;/span&gt;&lt;/span&gt;&lt;/span&gt;&lt;/div&gt;" style="whiteSpace=wrap;html=1;aspect=fixed;" vertex="1" parent="1">
          <mxGeometry x="820" y="110" width="170" height="170" as="geometry" />
        </mxCell>
      </root>
    </mxGraphModel>
  </diagram>
</mxfile>
